<svg xmlns="http://www.w3.org/2000/svg" width="48.874" height="68.837" viewBox="0 0 48.874 68.837">
  <g id="Grupo_28314" data-name="Grupo 28314" transform="translate(-132 -116.172)">
    <path id="Icon_material-add-shopping-cart" data-name="Icon material-add-shopping-cart" d="M16.046,39.561a4.49,4.49,0,1,0,0,8.956,4.492,4.492,0,1,0,0-8.956Zm24.243,0a4.492,4.492,0,1,0,4.849,4.478A4.666,4.666,0,0,0,40.289,39.561ZM16.458,32.285l.073-.269,2.182-3.649H36.774a4.9,4.9,0,0,0,4.243-2.306l9.358-15.695L46.131,8.217l-2.667,4.478L36.774,23.889H19.755l-.315-.6-5.43-10.59-2.3-4.478L9.427,3.739H1.5V8.217H6.349L15.076,25.21,11.8,30.695a4.074,4.074,0,0,0-.606,2.149,4.688,4.688,0,0,0,4.849,4.478H45.138V32.844H17.064A.594.594,0,0,1,16.458,32.285Z" transform="translate(130.5 136.492)" fill="#06f"/>
    <path id="Caminho_23552" data-name="Caminho 23552" d="M899.824,524.84c-3.517,0-5.593,2.038-6.967,3.386-1.227,1.206-1.521,1.42-2.46,1.42-1.023,0-1.3-.242-2.43-1.38a9.548,9.548,0,0,0-7-3.427,8.773,8.773,0,0,0-7.77,4.579,15.763,15.763,0,0,0-1.771,7.854,36.828,36.828,0,0,0,4.635,16.92c3.73,6.644,8.821,10.3,14.333,10.3,11.523,0,18.873-16.184,18.873-27.326a15.684,15.684,0,0,0-1.739-7.77A8.684,8.684,0,0,0,899.824,524.84ZM890.4,559.779h0c-12.332,0-19.62-30.223-9.427-30.223,3.635,0,3.951,4.807,9.429,4.807,5.336,0,5.886-4.807,9.427-4.807C909.9,529.556,902.526,559.779,890.4,559.779Z" transform="translate(-731.133 -408.668)" fill="#67deff"/>
  </g>
</svg>
