<svg xmlns="http://www.w3.org/2000/svg" width="49.862" height="55.222" viewBox="0 0 49.862 55.222">
  <g id="Grupo_11422" data-name="Grupo 11422" transform="translate(0.5 0.5)">
    <g id="Grupo_11290" data-name="Grupo 11290" transform="translate(0 0)">
      <g id="Grupo_11282" data-name="Grupo 11282">
        <path id="Caminho_6169" data-name="Caminho 6169" d="M1758.575,799.618c-3.774,0-4.764-4.167-5.639-7.843s-1.573-6.064-3.337-6.064c-1.914,0-2.788,2.361-3.9,5.961-1.082,3.494-2.309,7.455-5.991,7.455-8.977,0-14.707-21.114-14.707-35.65a33.388,33.388,0,0,1,1.932-12.364c1.967-4.725,5.005-5.717,7.208-5.717,3.217,0,5.1,1.892,6.918,3.721,2.032,2.043,4.134,4.156,8.541,4.156,4.288,0,6.447-2.118,8.534-4.167,1.859-1.825,3.781-3.711,6.922-3.711,2.131,0,5.068.929,6.957,5.355,1.228,2.879,1.851,6.8,1.851,11.66C1773.859,777.394,1767.442,799.618,1758.575,799.618Zm-8.981-16.516c3.963,0,4.982,4.287,5.881,8.07.838,3.526,1.507,5.837,3.1,5.837,2.8,0,6.014-4.26,8.588-11.395a73.291,73.291,0,0,0,4.087-23.2c0-4.331-.6-14.406-6.2-14.406-2.074,0-3.407,1.308-5.094,2.964-2.23,2.189-5.007,4.914-10.362,4.914-5.493,0-8.208-2.731-10.391-4.925-1.64-1.649-2.936-2.952-5.068-2.952-2.078,0-3.648,1.344-4.8,4.11a30.869,30.869,0,0,0-1.731,11.361c0,16.057,6.218,33.04,12.1,33.04,1.636,0,2.447-2.224,3.5-5.617C1744.335,787.245,1745.619,783.1,1749.594,783.1Z" transform="translate(-1724.998 -745.396)" class="primary stroke-primary" stroke-width="1"/>
      </g>
    </g>
    <path id="Subtração_9" data-name="Subtração 9" d="M22.592,42.776h0c-.737-.448-1.48-.932-2.208-1.438.137-.353.277-.729.418-1.119a73.285,73.285,0,0,0,4.087-23.2c0-4.331-.6-14.405-6.2-14.405-2.075,0-3.407,1.308-5.094,2.963-2.231,2.189-5.008,4.914-10.362,4.914a14.381,14.381,0,0,1-2.747-.254C.3,9.3.139,8.357,0,7.42a10.759,10.759,0,0,0,3.235.457c4.288,0,6.446-2.118,8.534-4.166C13.628,1.887,15.549,0,18.691,0c2.131,0,5.068.929,6.957,5.355,1.228,2.88,1.851,6.8,1.851,11.66a75.125,75.125,0,0,1-4.906,25.759Z" transform="translate(21.363 0)" class="secondary stroke-secondary" stroke-width="1"/>
    <path id="Caminho_6172" data-name="Caminho 6172" d="M-738.837-16578.592s9.515,24.895,20.54,30.887" transform="translate(761.281 16588.15)" fill="none" class="stroke-secondary" stroke-width="2"/>
  </g>
</svg>
