<svg xmlns="http://www.w3.org/2000/svg" width="767.306" height="804.089" viewBox="0 0 767.306 804.089">
  <path id="Caminho_23562" data-name="Caminho 23562" d="M1447.231,524.84c-71.313,0-113.4,41.319-141.269,68.661-24.879,24.451-30.846,28.8-49.888,28.8-20.738,0-26.309-4.9-49.275-27.977-25.829-25.992-69.059-69.484-141.909-69.484-66.432,0-123.873,33.841-157.553,92.847-23.816,41.768-35.91,95.337-35.91,159.251,0,108.417,36.016,239.876,93.987,343.094,75.635,134.719,178.853,208.9,290.634,208.9,233.643,0,382.685-328.161,382.685-554.084,0-63.251-11.882-116.263-35.271-157.556C1570.127,558.521,1513.186,524.84,1447.231,524.84Zm-191.1,708.457h-.079c-250.06,0-397.828-612.827-191.158-612.827,73.7,0,80.117,97.463,191.184,97.463,108.2,0,119.341-97.463,191.157-97.463C1651.49,620.47,1502.022,1233.3,1256.127,1233.3Z" transform="translate(-871.428 -524.84)" class="primary" fill="currentColor" opacity="0.2"/>
</svg>
