<svg width="100%" height="100%" viewBox="0 0 136 136" fill="none" xmlns="http://www.w3.org/2000/svg">
  <path class="primary" fill="currentColor" fill-rule="evenodd" clip-rule="evenodd" d="M19.5 51.4205C19.5 24.5278 41.5777 2.5 68.4982 2.5C95.6903 2.5 117.827 24.4935 117.496 51.4506C117.488 58.7226 114.295 67.4191 110.075 75.9243C105.773 84.5937 100.082 93.6817 94.4617 101.901C88.8299 110.136 83.2077 117.585 79.0015 122.986C76.8965 125.689 75.143 127.884 73.919 129.408C73.68 129.705 73.4641 129.974 73.2705 130.215C72.9628 130.597 72.7116 130.91 72.5143 131.157C72.383 131.321 72.2904 131.438 72.2294 131.516C71.4207 132.713 70.0513 133.5 68.4982 133.5C66.9451 133.5 65.5757 132.713 64.767 131.516C64.706 131.438 64.6134 131.321 64.4821 131.157C64.2848 130.91 64.0336 130.597 63.7259 130.215C63.5323 129.974 63.3163 129.705 63.0774 129.408C61.8534 127.884 60.0998 125.689 57.9949 122.986C53.7887 117.585 48.1665 110.136 42.5347 101.901C36.9139 93.6817 31.2237 84.5937 26.9218 75.9243C22.6956 67.4074 19.5 58.6986 19.5 51.4205ZM68.4982 121.777C67.5226 120.551 66.3751 119.099 65.0958 117.457C60.9586 112.144 55.4563 104.852 49.9635 96.82C44.4598 88.7722 39.0254 80.0685 34.9838 71.9238C30.8667 63.6266 28.5 56.4989 28.5 51.4205C28.5 29.5132 46.5334 11.5 68.4982 11.5C90.8089 11.5 108.777 29.5325 108.497 51.3627C108.497 51.382 108.496 51.4013 108.496 51.4205C108.496 56.4989 106.13 63.6266 102.013 71.9238C97.971 80.0685 92.5366 88.7722 87.0328 96.82C81.5401 104.852 76.0378 112.144 71.9006 117.457C70.6213 119.099 69.4738 120.551 68.4982 121.777Z" />
  <path class="secondary" fill="currentColor" d="M86.3333 47.6667C86.3333 57.3333 78.3333 65.3333 68.6667 65.3333C59 65.3333 51 57.3333 51 47.6667C51 38 59 30 68.6667 30C78.3333 30 86.3333 38 86.3333 47.6667Z" />
</svg>
