<svg xmlns="http://www.w3.org/2000/svg" width="55.587" height="64.006" viewBox="0 0 55.587 64.006">
  <g id="Grupo_11275" data-name="Grupo 11275" transform="translate(-1723.479 -366.642)">
    <g id="Grupo_11275-2" data-name="Grupo 11275" transform="translate(1734.869 366.642)">
      <path id="Caminho_6163" data-name="Caminho 6163" d="M1770.847,399.45a16.4,16.4,0,1,1,16.4-16.4A16.422,16.422,0,0,1,1770.847,399.45Zm0-29.9a13.493,13.493,0,1,0,13.494,13.493A13.509,13.509,0,0,0,1770.847,369.553Z" transform="translate(-1754.443 -366.642)" class="primary" fill="currentColor"/>
    </g>
    <g id="Grupo_11276" data-name="Grupo 11276" transform="translate(1723.479 401.4)">
      <path id="Caminho_6164" data-name="Caminho 6164" d="M1777.611,490.383h-52.677a1.455,1.455,0,0,1-1.455-1.455,27.793,27.793,0,1,1,55.587,0A1.455,1.455,0,0,1,1777.611,490.383Zm-51.179-2.911h49.682a24.883,24.883,0,0,0-49.682,0Z" transform="translate(-1723.479 -461.134)" class ="primary"/>
    </g>
    <g id="Grupo_11277" data-name="Grupo 11277" transform="translate(1743.825 384.556)">
      <path id="Caminho_6165" data-name="Caminho 6165" d="M1793.686,417.665c0,2.263-3.334,5.873-7.448,5.873s-7.448-3.611-7.448-5.873,3.334-2.321,7.448-2.321,7.448.058,7.448,2.321" transform="translate(-1778.791 -415.344)" fill="currentColor" class="secondary"/>
    </g>
  </g>
</svg>
